<svg xmlns="http://www.w3.org/2000/svg" width="51" height="20" viewBox="0 0 51 20" fill="none"> 
                 <g clip-path="url(#clip0_12704_2038)"> 
                  <path d="M4.2299 0.667969H0.605469V4.27284H4.2299V0.667969Z" fill="currentColor"></path> 
                  <path d="M4.13917 19.4491V6.4536H0.695312V19.4363H4.13917V19.4491ZM26.9434 19.5774V16.3959C26.4404 16.3959 26.0147 16.3702 25.7052 16.3189C25.344 16.2676 25.0732 16.1393 24.8926 15.9597C24.712 15.7801 24.5959 15.5235 24.5314 15.1771C24.4798 14.8564 24.454 14.4331 24.454 13.9199V9.39138H26.9434V6.4536H24.454V1.39908H21.0102V13.9584C21.0102 15.0232 21.1005 15.9212 21.2811 16.6396C21.4616 17.3452 21.7712 17.9225 22.1968 18.3587C22.6225 18.7948 23.19 19.1027 23.8736 19.2952C24.5701 19.4876 25.4472 19.5774 26.492 19.5774H26.9434ZM46.6521 19.4491V0.398438H43.2082V19.4491H46.6521ZM17.6953 7.73647C16.7408 6.71018 15.3994 6.19703 13.6968 6.19703C12.8713 6.19703 12.1103 6.3638 11.4396 6.69735C10.756 7.03089 10.1885 7.49273 9.72414 8.08285L9.54357 8.3266V8.10851V6.4536H6.15131V19.4363H9.56936V12.5216V12.9963C9.56936 12.9193 9.56936 12.8423 9.56936 12.7653C9.60806 11.5466 9.90472 10.6486 10.4722 10.0713C11.0785 9.45553 11.8137 9.14764 12.6521 9.14764C13.6452 9.14764 14.4062 9.45553 14.9093 10.0456C15.3994 10.6358 15.6574 11.4696 15.6574 12.5344V12.5729V19.4363H19.127V12.0726C19.1399 10.2252 18.6498 8.76277 17.6953 7.73647ZM41.4282 12.9321C41.4282 11.9956 41.2606 11.1233 40.9381 10.3022C40.6028 9.49401 40.1384 8.7756 39.558 8.15982C38.9647 7.54404 38.2553 7.06938 37.4298 6.723C36.6043 6.37663 35.6885 6.20986 34.6953 6.20986C33.7537 6.20986 32.8638 6.38946 32.0383 6.73583C31.2128 7.09504 30.4905 7.5697 29.8842 8.17265C29.278 8.7756 28.7879 9.49401 28.4396 10.3151C28.0785 11.1361 27.9108 12.0213 27.9108 12.9578C27.9108 13.8943 28.0785 14.7795 28.4138 15.6005C28.7492 16.4215 29.2264 17.1399 29.8197 17.7429C30.4131 18.3458 31.1483 18.8333 31.9996 19.1797C32.8509 19.5389 33.7924 19.7185 34.7985 19.7185C37.7135 19.7185 39.5193 18.3972 40.6027 17.1656L38.1263 15.2926C37.6103 15.9084 36.3721 16.7422 34.8243 16.7422C33.8569 16.7422 33.0572 16.5242 32.451 16.0752C31.8448 15.639 31.432 15.0232 31.2128 14.2663L31.1741 14.1508H41.4282V12.9321ZM31.1999 11.739C31.1999 10.7897 32.2962 9.13481 34.6566 9.12198C37.017 9.12198 38.1263 10.7769 38.1263 11.7262L31.1999 11.739ZM50.5732 17.807C50.5087 17.6531 50.4184 17.5248 50.3023 17.4093C50.1862 17.2939 50.0572 17.2041 49.9024 17.1399C49.7477 17.0758 49.58 17.0373 49.4123 17.0373C49.2317 17.0373 49.077 17.0758 48.9222 17.1399C48.7674 17.2041 48.6384 17.2939 48.5223 17.4093C48.4062 17.5248 48.316 17.6531 48.2515 17.807C48.187 17.961 48.1483 18.1278 48.1483 18.2945C48.1483 18.4741 48.187 18.6281 48.2515 18.782C48.316 18.936 48.4062 19.0642 48.5223 19.1797C48.6384 19.2952 48.7674 19.385 48.9222 19.4491C49.077 19.5133 49.2446 19.5517 49.4123 19.5517C49.5929 19.5517 49.7477 19.5133 49.9024 19.4491C50.0572 19.385 50.1862 19.2952 50.3023 19.1797C50.4184 19.0642 50.5087 18.936 50.5732 18.782C50.6377 18.6281 50.6763 18.4613 50.6763 18.2945C50.6763 18.1278 50.6377 17.961 50.5732 17.807ZM50.3668 18.705C50.3152 18.8333 50.2378 18.9488 50.1475 19.0386C50.0572 19.1284 49.9411 19.2054 49.8122 19.2567C49.6832 19.308 49.5542 19.3337 49.3994 19.3337C49.2575 19.3337 49.1157 19.308 48.9867 19.2567C48.8577 19.2054 48.7416 19.1284 48.6513 19.0386C48.561 18.9488 48.4836 18.8333 48.432 18.705C48.3804 18.5768 48.3546 18.4485 48.3546 18.2945C48.3546 18.1534 48.3804 18.0123 48.432 17.884C48.4836 17.7557 48.561 17.6403 48.6513 17.5505C48.7416 17.4607 48.8577 17.3837 48.9867 17.3324C49.1157 17.2811 49.2446 17.2554 49.3994 17.2554C49.5413 17.2554 49.6832 17.2811 49.8122 17.3324C49.9411 17.3837 50.0572 17.4607 50.1475 17.5505C50.2378 17.6403 50.3152 17.7557 50.3668 17.884C50.4184 18.0123 50.4442 18.1406 50.4442 18.2945C50.4442 18.4485 50.4184 18.5768 50.3668 18.705ZM49.6445 18.41C49.7477 18.3972 49.8251 18.3587 49.8895 18.2945C49.954 18.2304 49.9927 18.1406 49.9927 18.0123C49.9927 17.8712 49.954 17.7685 49.8638 17.6916C49.7864 17.6146 49.6445 17.5761 49.4768 17.5761H48.9093V19.0258H49.1801V18.4356H49.3736L49.7348 19.0258H50.0185L49.6445 18.41ZM49.5026 18.1919C49.4639 18.1919 49.4252 18.1919 49.3736 18.1919H49.1801V17.7814H49.3736C49.4123 17.7814 49.451 17.7814 49.5026 17.7814C49.5413 17.7814 49.58 17.7942 49.6187 17.807C49.6574 17.8199 49.6832 17.8455 49.6961 17.8712C49.7219 17.8968 49.7219 17.9353 49.7219 17.9866C49.7219 18.0379 49.709 18.0764 49.6961 18.1021C49.6703 18.1278 49.6445 18.1534 49.6187 18.1662C49.58 18.1791 49.5413 18.1919 49.5026 18.1919Z" fill="currentColor"></path> 
                 </g> 
                 <defs> 
                  <clipPath id="clip0_12704_2038"> 
                   <rect width="51" height="20" fill="white"></rect> 
                  </clipPath> 
                 </defs> 
                </svg>