<svg xmlns="http://www.w3.org/2000/svg" xmlns:xlink="http://www.w3.org/1999/xlink" width="438px" height="60px" viewBox="0 0 438 60" version="1.1">
    <title>资源 2备份 5</title>
    <g id="-" stroke="none" stroke-width="1" fill="none" fill-rule="evenodd">
        <g id="资源-2备份-5">
            <rect id="矩形" x="0" y="0" width="438" height="60"/>
            <g id="编组-19" transform="translate(4.557985, 2.029302)" fill-rule="nonzero">
                <path d="M67.1073581,38.2831884 C65.1897441,36.879982 62.5629174,34.021824 60.1795971,30.764924 C58.2071941,33.9944295 56.1404324,37.2543733 53.6140521,40.316468 C56.0278106,43.2568094 58.4293939,45.6401297 60.5966021,47.2229222 C68.7692902,53.1979639 76.2388533,53.3714623 77.0606879,53.3714623 L77.3163697,53.3714623 L77.3163697,42.3101778 L77.0606879,42.3101778 C76.9998112,42.3010463 72.3762308,42.1458109 67.1073581,38.2831884 Z" id="路径" fill="#F71714"/>
                <path d="M257.240307,23.2649226 C253.10374,22.6987699 242.413803,21.4690619 235.288193,20.2210909 C231.419483,19.5484041 228.342169,18.4160987 228.591763,15.6553433 C228.944847,11.8140277 236.810108,10.2768927 244.967578,10.5660567 C252.972855,10.8400015 258.533936,12.514109 261.912589,16.0327785 L272.069855,10.6482401 C267.199724,3.64742715 257.858205,0.487929819 245.354144,0.0465742179 C230.868549,-0.464789513 221.307874,3.27303585 217.959659,9.37287463 C213.637418,17.271618 217.606574,27.1701588 231.85475,29.7269774 C234.289816,30.1622453 247.256539,31.6324161 254.379105,32.8712556 C258.247815,33.5469862 262.676591,35.1358664 261.10293,39.1872064 C259.885397,42.3558352 254.102117,44.6478405 243.774395,44.2825807 C234.271553,43.9477592 227.791235,42.1518985 224.753491,35.7202821 L214.824512,40.9830671 C217.56396,46.6750325 222.300163,50.4189455 227.967777,52.21785 C232.967053,53.7983027 238.159568,54.6852293 243.400004,54.8538083 C248.144397,54.9668144 252.887047,54.5647046 257.54469,53.6545386 C262.253498,52.7718274 268.569449,49.7858285 271.305853,45.0952838 C277.296114,34.8406147 270.252688,25.0425204 257.240307,23.2649226 Z" id="路径" fill="#231815"/>
                <path d="M365.57941,20.9363914 C363.862689,10.5325745 357.647184,3.73265444 347.453392,1.51370111 C343.00247,0.505880664 338.450525,0.0125915249 333.887034,0.0435303862 L333.887034,0.0435303862 C329.323543,0.0125915249 324.771597,0.505880664 320.320676,1.51370111 C310.12384,3.73265444 303.908335,10.5325745 302.194658,20.9363914 C301.496485,25.2941609 301.513963,29.7366471 302.246403,34.0887883 C303.963124,44.2369233 310.078182,50.8694326 319.964547,53.2010077 C324.531357,54.2583415 329.199661,54.8155987 333.887034,54.8629398 L333.887034,54.8629398 C338.574417,54.8157673 343.24274,54.258508 347.80952,53.2010077 C357.692842,50.8694326 363.8079,44.2369233 365.524621,34.0887883 C366.258069,29.7368127 366.276575,25.2943264 365.57941,20.9363914 L365.57941,20.9363914 Z M333.887034,44.2825807 C315.846243,44.2825807 312.908946,36.9499901 312.835894,27.4684543 C312.762842,17.9869184 316.184108,10.5538813 333.887034,10.5538813 C351.589959,10.5538813 355.011226,18.0264882 354.93513,27.4684543 C354.859034,36.9104203 351.927824,44.2825807 333.887034,44.2825807 Z" id="形状" fill="#231815"/>
                <path d="M77.0454687,1.66893653 C76.2205903,1.66893653 68.7358081,1.85461026 60.5813829,7.81747662 C57.8419343,9.81423024 54.7220068,13.0893932 51.7542709,17.0646374 C49.1585738,13.4147365 46.0219336,10.1816158 42.4523211,7.47656747 C35.1258181,2.02810867 27.3062144,1.69328718 25.8116931,1.66893653 C11.5505864,1.69244194 0.00165959368,13.2590735 -1.2421485e-13,27.5201994 C-1.2421485e-13,41.7744634 11.5665606,53.3714623 25.7690794,53.3714623 L25.8116931,53.3714623 C26.7248426,53.3714623 34.839698,53.2040515 42.5527676,47.4725164 C49.328337,42.4349749 53.2335731,36.0124899 57.0109683,29.8000294 C59.8721701,25.0973093 62.5720488,20.6685342 66.2459537,17.4785985 C69.3121692,14.8666328 73.080089,13.2161166 77.0789509,12.7332649 L77.3041944,12.7089142 L77.3041944,1.66893653 L77.0454687,1.66893653 Z M45.3652681,27.5201994 C42.6258195,32.2624892 39.4297962,36.0155338 35.8532939,38.6758427 C32.9162104,40.8120361 29.4328875,42.0702545 25.8086492,42.3040901 C17.6437318,42.2965253 11.030891,35.6714195 11.0384493,27.5065022 C11.0460205,19.3415848 17.6711263,12.7287439 25.8360437,12.7363022 C29.4590367,12.9536465 32.9419704,14.2136334 35.8654693,16.3645561 C39.4297962,19.024865 42.6288634,22.7779096 45.3652681,27.5201994 Z" id="形状" fill="#F70000"/>
                <polygon id="路径" fill="#231815" points="428.559332 53.3166733 417.793299 53.3166733 385.038626 17.0585497 385.038626 53.3166733 374.242155 53.3166733 374.242155 1.65371737 386.365737 1.65371737 417.306286 35.9181311 417.306286 1.65371737 428.559332 1.65371737"/>
                <polygon id="路径" fill="#231815" points="138.558264 23.9954423 138.558264 34.5910205 100.394702 34.5910205 100.394702 53.3501555 88.9651138 53.3501555 88.9651138 53.3501555 88.9651138 1.65980503 138.558264 1.65980503 138.558264 11.9753508 100.394702 11.9753508 100.394702 23.9954423"/>
                <rect id="矩形" fill="#231815" x="281.715758" y="1.65067354" width="11.2378267" height="51.6720874"/>
                <path d="M207.18145,1.6658927 L195.751862,1.6658927 C195.751862,1.6658927 195.751862,17.8195077 195.751862,25.4564815 C195.751862,38.325802 190.464727,43.9538469 177.692809,43.9538469 C164.920891,43.9538469 159.639843,38.325802 159.639843,25.4686568 C159.639843,17.831683 159.639843,1.67806802 159.639843,1.67806802 L148.201123,1.67806802 C148.201123,1.67806802 148.173729,20.1602143 148.201123,28.9995016 C148.201123,46.9581088 161.703561,54.5676881 177.692809,54.5676881 C193.682057,54.5676881 207.18145,46.9581088 207.18145,28.9995016 C207.211889,20.148039 207.18145,1.6658927 207.18145,1.6658927 Z" id="路径" fill="#231815"/>
            </g>
        </g>
    </g>
</svg>